<?xml version="1.0" encoding="UTF-8" standalone="no"?>
<!DOCTYPE svg PUBLIC "-//W3C//DTD SVG 1.1//EN"
 "http://www.w3.org/Graphics/SVG/1.1/DTD/svg11.dtd">
<!-- Generated by graphviz version 2.43.0 (0)
 -->
<!-- Title: example Pages: 1 -->
<svg width="62pt" height="118pt"
 viewBox="0.00 0.00 62.00 118.00" xmlns="http://www.w3.org/2000/svg" xmlns:xlink="http://www.w3.org/1999/xlink">
<g id="graph0" class="graph" transform="scale(1 1) rotate(0) translate(4 114)">
<title>example</title>
<polygon fill="white" stroke="transparent" points="-4,4 -4,-114 58,-114 58,4 -4,4"/>
<!-- b -->
<g id="node1" class="node">
<title>b</title>
<g id="a_node1"><a xlink:href="" target="_top" xlink:title="class B">
<polygon fill="none" stroke="black" points="0,-73.5 0,-109.5 54,-109.5 54,-73.5 0,-73.5"/>
<text text-anchor="middle" x="27" y="-89" font-family="Helvetica,sans-Serif" font-size="10.00">class B</text>
</a>
</g>
</g>
<!-- c -->
<g id="node2" class="node">
<title>c</title>
<g id="a_node2"><a xlink:href="" target="_top" xlink:title="class C">
<polygon fill="none" stroke="black" points="0,-0.5 0,-36.5 54,-36.5 54,-0.5 0,-0.5"/>
<text text-anchor="middle" x="27" y="-16" font-family="Helvetica,sans-Serif" font-size="10.00">class C</text>
</a>
</g>
</g>
<!-- b&#45;&gt;c -->
<g id="edge1" class="edge">
<title>b&#45;&gt;c</title>
<path fill="none" stroke="black" stroke-dasharray="5,2" d="M27,-73.31C27,-65.29 27,-55.55 27,-46.57"/>
<polygon fill="black" stroke="black" points="27,-36.53 31.5,-46.53 27,-41.53 27,-46.53 27,-46.53 27,-46.53 27,-41.53 22.5,-46.53 27,-36.53 27,-36.53"/>
</g>
</g>
</svg>
